<?xml version="1.0" standalone="no"?>
<!DOCTYPE svg PUBLIC "-//W3C//DTD SVG 20010904//EN"
 "http://www.w3.org/TR/2001/REC-SVG-20010904/DTD/svg10.dtd">
<svg version="1.0" xmlns="http://www.w3.org/2000/svg"
 width="700.000000pt" height="700.000000pt" viewBox="0 0 700.000000 700.000000"
 preserveAspectRatio="xMidYMid meet">
<metadata>
Created by potrace 1.14, written by Peter Selinger 2001-2017
</metadata>
<g transform="translate(0.000000,700.000000) scale(0.100000,-0.100000)"
fill="#000000" stroke="none">
<path d="M5654 5796 c-18 -14 -19 -37 -24 -798 l-5 -783 -23 -3 c-15 -2 -38 9
-65 30 -48 40 -131 97 -167 117 -190 103 -340 154 -539 181 -124 17 -326 14
-426 -6 -11 -3 -36 -7 -55 -10 -62 -10 -232 -70 -323 -114 -186 -88 -383 -243
-524 -411 -70 -84 -183 -248 -183 -265 0 -7 -3 -14 -7 -16 -18 -7 -98 -190
-138 -312 -42 -126 -67 -236 -82 -361 -13 -97 -8 -403 6 -480 8 -38 15 -77 16
-85 37 -199 130 -429 248 -609 66 -100 81 -121 152 -200 287 -322 674 -505
1091 -515 103 -2 323 16 345 30 3 2 21 6 40 9 62 11 235 73 319 114 79 39 135
74 242 151 68 48 78 36 78 -91 0 -75 4 -101 16 -113 8 -9 18 -17 22 -17 4 -1
225 -3 491 -4 445 -1 485 0 505 16 l21 17 0 2250 c0 2198 0 2250 -19 2271 -19
21 -24 21 -506 21 -404 0 -489 -2 -506 -14z m-634 -2191 c350 -91 590 -422
581 -799 -8 -361 -266 -685 -606 -762 -16 -4 -80 -8 -142 -10 -88 -3 -126 1
-184 17 -285 79 -500 315 -563 619 -14 69 -17 265 -4 310 3 8 8 33 13 54 4 22
18 66 31 97 105 257 314 437 564 484 84 16 228 12 310 -10z"/>
<path d="M351 4438 c-11 -4 -23 -13 -27 -20 -5 -7 -9 -734 -9 -1615 0 -1494 1
-1604 17 -1625 l17 -23 510 0 c477 0 511 1 528 18 17 17 18 59 19 700 1 620 5
788 20 873 66 377 243 610 509 669 102 23 237 17 320 -15 81 -30 110 -35 124
-18 6 7 110 146 231 308 121 162 226 302 233 310 7 8 23 31 37 50 13 19 27 37
30 40 18 15 100 140 100 153 0 8 -6 19 -12 25 -34 27 -454 142 -608 166 -123
20 -248 11 -398 -29 -158 -40 -348 -138 -467 -239 -111 -95 -117 -90 -119 99
-2 144 -3 149 -26 164 -21 14 -83 16 -517 16 -272 0 -502 -3 -512 -7z"/>
</g>
</svg>
