<?xml version="1.0" encoding="UTF-8"?>
<svg version="1.1" viewBox="0 0 192 133" xmlns="http://www.w3.org/2000/svg">
  <g>
    <path d="m38.244 73.846c0.64119 0 1.0687-0.41538 1.0687-1.0385v-19.938c0-7.3731 2.8854-14.954 10.58-14.954 1.2824 0 2.5648 0.20769 3.7403 0.83077 0.64119 0.31154 1.0687 0.31154 1.3893-0.41538l9.5971-12.736c0.21373-0.62308 0.25758-0.84308-0.38362-1.0508-2.2442-0.83077-8.6791-2.6205-10.923-2.6205-4.9158 0-9.4042 1.9731-12.931 5.0885-0.64119 0.51923-1.0687 0.31154-1.0687-0.41538v-3.6346c0-0.62308-0.42746-1.0385-1.0687-1.0385h-15.175c-0.64119 0-1.0687 0.41538-1.0687 1.0385v49.846c0 0.62308 0.42746 1.0385 1.0687 1.0385h15.175zm44.552 1.1538c6.0537 0 11.168-1.7386 15.134-4.7043 0.4175-0.40907 0.83499 0 0.83499 0.61361v1.8408c0 0.61361 0.4175 1.0227 1.0437 1.0227h14.821c0.62624 0 1.0437-0.40907 1.0437-1.0227v-49.088c0-0.61361-0.4175-1.0227-1.0437-1.0227h-14.821c-0.62624 0-1.0437 0.40907-1.0437 1.0227v2.659c0 0.61361-0.4175 0.92041-1.0437 0.40907-3.8618-2.9658-8.9762-4.8066-14.925-4.8066-13.777 0-24.945 12.477-24.945 26.896s11.168 26.181 24.945 26.181zm3.2868-12.692c-6.6786 0-12.042-5.9608-12.042-12.744 0-6.8857 5.3631-12.641 12.042-12.641 6.7798 0 12.244 5.858 12.244 12.641 0 6.7829-5.4643 12.744-12.244 12.744zm42.312-45c5.1515 0 9.2517-3.8688 9.2517-8.6538 0-4.7851-3.9951-8.6538-9.2517-8.6538-5.1515 0-9.2517 3.8688-9.2517 8.6538 0 4.7851 4.1002 8.6538 9.2517 8.6538zm7.0958 56.538c0.59965 0 0.99941-0.41538 0.99941-1.0385v-49.846c0-0.62308-0.39976-1.0385-0.99941-1.0385h-14.192c-0.59965 0-0.99941 0.41538-0.99941 1.0385v49.846c0 0.62308 0.39976 1.0385 0.99941 1.0385h14.192zm19.66 1.1538c0.59965 0 0.99941-0.41598 0.99941-1.0399v-70.612c0-0.62397-0.39976-1.0399-0.99941-1.0399h-14.192c-0.59965 0-0.99941 0.41598-0.99941 1.0399v70.612c0 0.62397 0.39976 1.0399 0.99941 1.0399h14.192zm6.4469-2.6409c19.752 7.1767 30.403-1.6404 30.403-10.15 0-3.6909-0.41364-6.254-2.9989-10.252-3.8262-5.6388-11.582-10.868-11.582-14.456 0-5.6388 7.549-3.5884 11.375-2.2555 0.62047 0.20505 0.9307-0.10252 0.9307-0.71767l-0.82729-11.073c0-0.4101-0.31023-0.8202-0.72388-0.92272-13.547-4.6136-28.231-0.10252-28.231 12.713 0 8.8171 6.1012 14.251 10.962 18.864 1.4478 1.3328 3.516 3.3833 3.516 5.4338 0 5.6388-8.7899 2.3581-13.857-0.51262-0.51706-0.4101-1.0341-0.10252-0.9307 0.51262l1.2409 11.995c0 0.4101 0.31023 0.71767 0.72388 0.8202z"/>
    <path d="m24.949 133c5.8458 0 10.961-1.8734 15.032-5.0999 0.52194-0.41632 0.9395-0.10408 0.9395 0.52039v2.2897c0 0.62447 0.41755 1.0408 1.0439 1.0408h14.823c0.62633 0 1.0439-0.41632 1.0439-1.0408v-70.669c0-0.62447-0.41755-1.0408-1.0439-1.0408h-14.823c-0.62633 0-1.0439 0.41632-1.0439 1.0408v23.73c0 0.72855-0.41755 0.93671-1.0439 0.52039-3.9668-3.3305-9.0818-5.308-14.928-5.308-13.779 0-24.949 12.698-24.949 27.373 0 14.675 11.17 26.644 24.949 26.644zm3.2873-13.875c-6.6795 0-12.043-5.9732-12.043-12.77 0-6.7971 5.2627-12.667 12.043-12.667 6.8819 0 12.246 5.8702 12.246 12.667 0 6.7971-5.3639 12.77-12.246 12.77zm58.218 13.875c13.421 0 21.536-8.8514 23.409-16.365 0.10404-0.4117-0.31212-0.61754-0.93636-0.82339l-11.548-2.9848c-0.62424-0.20585-0.93636 0-1.2485 0.61754-2.1848 3.3965-4.8899 5.7637-9.9879 5.7637-1.9768 0-3.8495-0.4117-5.5141-1.2351-0.62424-0.20585-0.62424-0.72047 0-1.1322l28.299-16.571c0.41616-0.30877 0.72828-0.61754 0.62424-1.2351-0.93636-11.116-11.548-20.379-24.241-20.379-14.982 0-26.322 11.733-26.322 26.863 0 15.233 12.381 27.481 27.467 27.481zm-12.43-26.111v-0.31672c0-7.7068 5.446-14.041 12.568-14.041 3.0372 0 5.3413 1.3724 6.9122 3.0616 0.31419 0.42229 0.20946 0.84458-0.20946 1.1613l-18.223 10.663c-0.52365 0.31672-1.0473 0.10557-1.0473-0.52786zm66.204 24.955c0.51912 0 0.93441-0.20812 1.1421-0.8325l20.453-49.95c0.31147-0.72844-0.10382-1.2488-0.83059-1.2488h-15.989c-0.51912 0-1.0382 0.20812-1.2459 0.8325l-10.279 28.305c-0.20765 0.72844-0.83059 0.72844-1.0382 0l-10.175-28.305c-0.20765-0.62438-0.72676-0.8325-1.2459-0.8325h-15.989c-0.72676 0-1.1421 0.52031-0.83059 1.2488l20.349 49.95c0.20765 0.62438 0.62294 0.8325 1.1421 0.8325h14.535zm21.365-1.4901c19.754 7.1917 30.407-1.6438 30.407-10.171 0-3.6986-0.4137-6.267-2.9993-10.274-3.8267-5.6506-11.584-10.89-11.584-14.486 0-5.6506 7.5501-3.5958 11.377-2.2602 0.62055 0.20548 0.93083-0.10274 0.93083-0.71917l-0.82741-11.096c0-0.41095-0.31028-0.8219-0.72398-0.92464-13.549-4.6232-28.235-0.10274-28.235 12.74 0 8.8355 6.1021 14.281 10.963 18.904 1.448 1.3356 3.5165 3.3904 3.5165 5.4451 0 5.6506-8.7912 2.363-13.859-0.51369-0.51713-0.41095-1.0343-0.10274-0.93083 0.51369l1.2411 12.02c0 0.41095 0.31028 0.71917 0.72398 0.8219z"/>
  </g>
</svg>
