<?xml version="1.0" encoding="UTF-8"?>
<svg version="1.1" viewBox="0 0 527 346" xmlns="http://www.w3.org/2000/svg">
  <g fill-rule="evenodd">
    <g transform="translate(4)" fill-rule="nonzero">
      <path d="m98.432 192c1.6704 0 2.7841-1.08 2.7841-2.7v-51.84c0-19.17 7.517-38.88 27.562-38.88 3.3409 0 6.6818 0.54 9.7443 2.16 1.6704 0.81 2.7841 0.81 3.6193-1.08l25.002-33.115c0.55682-1.62 0.67104-2.192-0.9994-2.732-5.8466-2.16-22.611-6.8133-28.458-6.8133-12.807 0-24.5 5.13-33.687 13.23-1.6704 1.35-2.7841 0.81-2.7841-1.08v-9.45c0-1.62-1.1136-2.7-2.7841-2.7h-39.534c-1.6704 0-2.7841 1.08-2.7841 2.7v129.6c0 1.62 1.1136 2.7 2.7841 2.7h39.534zm116.28 3c15.771 0 29.095-4.5202 39.428-12.231 1.0877-1.0636 2.1753 0 2.1753 1.5954v4.7861c0 1.5954 1.0877 2.659 2.7192 2.659h38.612c1.6315 0 2.7192-1.0636 2.7192-2.659v-127.63c0-1.5954-1.0877-2.659-2.7192-2.659h-38.612c-1.6315 0-2.7192 1.0636-2.7192 2.659v6.9133c0 1.5954-1.0877 2.3931-2.7192 1.0636-10.061-7.711-23.385-12.497-38.884-12.497-35.893 0-64.988 32.439-64.988 69.931 0 37.491 29.095 68.069 64.988 68.069zm8.5628-33c-17.399 0-31.371-15.498-31.371-33.134 0-17.903 13.972-32.866 31.371-32.866 17.663 0 31.898 15.231 31.898 32.866 0 17.636-14.236 33.134-31.898 33.134zm107.02-117c13.421 0 24.103-10.059 24.103-22.5s-10.408-22.5-24.103-22.5c-13.421 0-24.103 10.059-24.103 22.5s10.682 22.5 24.103 22.5zm18.486 147c1.5622 0 2.6037-1.08 2.6037-2.7v-129.6c0-1.62-1.0415-2.7-2.6037-2.7h-36.972c-1.5622 0-2.6037 1.08-2.6037 2.7v129.6c0 1.62 1.0415 2.7 2.6037 2.7h36.972zm51.218 0c1.5622 0 2.6037-1.0644 2.6037-2.6609v-180.68c0-1.5966-1.0415-2.6609-2.6037-2.6609h-36.972c-1.5622 0-2.6037 1.0644-2.6037 2.6609v180.68c0 1.5966 1.0415 2.6609 2.6037 2.6609h36.972zm16.796-3.8663c51.457 18.659 79.206-4.265 79.206-26.39 0-9.5963-1.0776-16.26-7.8128-26.656-9.9681-14.661-30.174-28.256-30.174-37.585 0-14.661 19.667-9.3297 29.635-5.8644 1.6164 0.53313 2.4247-0.26656 2.4247-1.8659l-2.1553-28.789c0-1.0663-0.80822-2.1325-1.8859-2.3991-35.292-11.995-73.548-0.26656-73.548 33.054 0 22.924 15.895 37.052 28.557 49.048 3.7717 3.4653 9.1599 8.7966 9.1599 14.128 0 14.661-22.9 6.131-36.101-1.3328-1.347-1.0663-2.6941-0.26656-2.4247 1.3328l3.2329 31.188c0 1.0663 0.80822 1.8659 1.8859 2.1325z"/>
      <path d="m64.971 346c15.223 0 28.544-4.8861 39.146-13.301 1.3592-1.0858 2.4466-0.27145 2.4466 1.3572v5.9719c0 1.6287 1.0874 2.7145 2.7185 2.7145h38.602c1.6311 0 2.7185-1.0858 2.7185-2.7145v-184.31c0-1.6287-1.0874-2.7145-2.7185-2.7145h-38.602c-1.6311 0-2.7185 1.0858-2.7185 2.7145v61.89c0 1.9001-1.0874 2.443-2.7185 1.3572-10.33-8.6864-23.651-13.844-38.874-13.844-35.884 0-64.971 33.117-64.971 71.391s29.087 69.491 64.971 69.491zm8.5606-36.188c-17.395 0-31.363-15.579-31.363-33.306s13.705-33.038 31.363-33.038c17.922 0 31.89 15.31 31.89 33.038s-13.968 33.306-31.89 33.306zm152.61 36.188c34.951 0 56.084-23.086 60.961-42.681 0.27094-1.0737-0.81281-1.6106-2.4384-2.1475l-30.074-7.7847c-1.6256-0.53687-2.4384 0-3.2513 1.6106-5.6897 8.8584-12.734 15.032-26.01 15.032-5.1478 0-10.025-1.0737-14.36-3.2212-1.6256-0.53687-1.6256-1.8791 0-2.9528l73.695-43.218c1.0838-0.80531 1.8966-1.6106 1.6256-3.2212-2.4384-28.991-30.074-53.15-63.129-53.15-39.015 0-68.547 30.602-68.547 70.062 0 39.729 32.242 71.672 71.528 71.672zm-32.371-68.1v-0.82603c0-20.1 14.182-36.621 32.728-36.621 7.9094 0 13.91 3.5795 18.001 7.985 0.81821 1.1014 0.54547 2.2028-0.54547 3.0288l-47.456 27.81c-1.3637 0.82603-2.7274 0.27534-2.7274-1.3767zm172.41 65.084c1.3519 0 2.4334-0.54281 2.9741-2.1712l53.264-130.28c0.81112-1.8998-0.27037-3.2569-2.163-3.2569h-41.638c-1.3519 0-2.7037 0.54281-3.2445 2.1712l-26.767 73.822c-0.54075 1.8998-2.163 1.8998-2.7037 0l-26.497-73.822c-0.54075-1.6284-1.8926-2.1712-3.2445-2.1712h-41.638c-1.8926 0-2.9741 1.357-2.163 3.2569l52.993 130.28c0.54075 1.6284 1.6222 2.1712 2.9741 2.1712h37.852zm55.638-3.8865c51.443 18.757 79.185-4.2872 79.185-26.527 0-9.6463-1.0774-16.345-7.8108-26.795-9.9655-14.737-30.166-28.403-30.166-37.781 0-14.737 19.662-9.3783 29.627-5.8949 1.616 0.5359 2.424-0.26795 2.424-1.8757l-2.1547-28.939c0-1.0718-0.80801-2.1436-1.8854-2.4116-35.283-12.058-73.529-0.26795-73.529 33.226 0 23.044 15.891 37.245 28.55 49.303 3.7707 3.4834 9.1575 8.8424 9.1575 14.201 0 14.737-22.894 6.1629-36.091-1.3398-1.3467-1.0718-2.6934-0.26795-2.424 1.3398l3.2321 31.35c0 1.0718 0.80801 1.8757 1.8854 2.1436z"/>
    </g>
  </g>
</svg>
