<svg xmlns="http://www.w3.org/2000/svg" viewBox="0 0 341 54" fill="currentColor">
  <path d="m12.128 52c0.432 0 0.72-0.288 0.72-0.72v-13.824c0-5.112 1.944-10.368 7.128-10.368 0.864 0 1.728 0.144 2.52 0.576 0.432 0.216 0.72 0.216 0.936-0.288l4.176-9.576c0.144-0.432 0.072-0.792-0.36-0.936-1.512-0.576-3.456-0.864-4.968-0.864-3.312 0-6.336 1.368-8.712 3.528-0.432 0.36-0.72 0.216-0.72-0.288v-2.52c0-0.432-0.288-0.72-0.72-0.72h-10.224c-0.432 0-0.72 0.288-0.72 0.72v34.56c0 0.432 0.288 0.72 0.72 0.72h10.224zm30.536 0.864c4.176 0 7.704-1.224 10.44-3.312 0.288-0.288 0.576 0 0.576 0.432v1.296c0 0.432 0.288 0.72 0.72 0.72h10.224c0.432 0 0.72-0.288 0.72-0.72v-34.56c0-0.432-0.288-0.72-0.72-0.72h-10.224c-0.432 0-0.72 0.288-0.72 0.72v1.872c0 0.432-0.288 0.648-0.72 0.288-2.664-2.088-6.192-3.384-10.296-3.384-9.504 0-17.208 8.784-17.208 18.936s7.704 18.432 17.208 18.432zm2.304-9.504c-4.752 0-8.568-4.176-8.568-8.928 0-4.824 3.816-8.856 8.568-8.856 4.824 0 8.712 4.104 8.712 8.856s-3.888 8.928-8.712 8.928zm31.472-30.816c3.528 0 6.336-2.736 6.336-6.12s-2.736-6.12-6.336-6.12c-3.528 0-6.336 2.736-6.336 6.12s2.808 6.12 6.336 6.12zm5.112 39.456c0.432 0 0.72-0.288 0.72-0.72v-34.56c0-0.432-0.288-0.72-0.72-0.72h-10.224c-0.432 0-0.72 0.288-0.72 0.72v34.56c0 0.432 0.288 0.72 0.72 0.72h10.224zm16.928 0c0.432 0 0.72-0.288 0.72-0.72v-48.888c0-0.432-0.288-0.72-0.72-0.72h-10.224c-0.432 0-0.72 0.288-0.72 0.72v48.888c0 0.432 0.288 0.72 0.72 0.72h10.224zm5.48-0.792c13.752 5.04 21.168-1.152 21.168-7.128 0-2.592-0.288-4.392-2.088-7.2-2.664-3.96-8.064-7.632-8.064-10.152 0-3.96 5.256-2.52 7.92-1.584 0.432 0.144 0.648-0.072 0.648-0.504l-0.576-7.776c0-0.288-0.216-0.576-0.504-0.648-9.432-3.24-19.656-0.072-19.656 8.928 0 6.192 4.248 10.008 7.632 13.248 1.008 0.936 2.448 2.376 2.448 3.816 0 3.96-6.12 1.656-9.648-0.36-0.36-0.288-0.72-0.072-0.648 0.36l0.864 8.424c0 0.288 0.216 0.504 0.504 0.576zm40.256 1.656c4.032 0 7.56-1.296 10.368-3.528 0.36-0.288 0.648-0.072 0.648 0.36v1.584c0 0.432 0.288 0.72 0.72 0.72h10.224c0.432 0 0.72-0.288 0.72-0.72v-48.888c0-0.432-0.288-0.72-0.72-0.72h-10.224c-0.432 0-0.72 0.288-0.72 0.72v16.416c0 0.504-0.288 0.648-0.72 0.36-2.736-2.304-6.264-3.672-10.296-3.672-9.504 0-17.208 8.784-17.208 18.936s7.704 18.432 17.208 18.432zm2.304-9.36c-4.752 0-8.568-4.176-8.568-8.928s3.744-8.856 8.568-8.856c4.896 0 8.712 4.104 8.712 8.856s-3.816 8.928-8.712 8.928zm42.704 9.36c9.288 0 14.904-6.192 16.2-11.448 0.072-0.288-0.216-0.432-0.648-0.576l-7.992-2.088c-0.432-0.144-0.648 0-0.864 0.432-1.512 2.376-3.384 4.032-6.912 4.032-1.368 0-2.664-0.288-3.816-0.864-0.432-0.144-0.432-0.504 0-0.792l19.584-11.592c0.288-0.216 0.504-0.432 0.432-0.864-0.648-7.776-7.992-14.256-16.776-14.256-10.368 0-18.216 8.208-18.216 18.792 0 10.656 8.568 19.224 19.008 19.224zm-8.856-18.144v-0.216c0-5.256 3.744-9.576 8.64-9.576 2.088 0 3.672 0.936 4.752 2.088 0.216 0.288 0.144 0.576-0.144 0.792l-12.528 7.272c-0.36 0.216-0.72 0.072-0.72-0.36zm48.752 17.28c0.36 0 0.648-0.144 0.792-0.576l14.184-34.56c0.216-0.504-0.072-0.864-0.576-0.864h-11.088c-0.36 0-0.72 0.144-0.864 0.576l-7.128 19.584c-0.144 0.504-0.576 0.504-0.72 0l-7.056-19.584c-0.144-0.432-0.504-0.576-0.864-0.576h-11.088c-0.504 0-0.792 0.36-0.576 0.864l14.112 34.56c0.144 0.432 0.432 0.576 0.792 0.576h10.08zm16.496-0.792c13.752 5.04 21.168-1.152 21.168-7.128 0-2.592-0.288-4.392-2.088-7.2-2.664-3.96-8.064-7.632-8.064-10.152 0-3.96 5.256-2.52 7.92-1.584 0.432 0.144 0.648-0.072 0.648-0.504l-0.576-7.776c0-0.288-0.216-0.576-0.504-0.648-9.432-3.24-19.656-0.072-19.656 8.928 0 6.192 4.248 10.008 7.632 13.248 1.008 0.936 2.448 2.376 2.448 3.816 0 3.96-6.12 1.656-9.648-0.36-0.36-0.288-0.72-0.072-0.648 0.36l0.864 8.424c0 0.288 0.216 0.504 0.504 0.576zm32.264 1.368c3.528 0 6.336-2.736 6.336-6.12s-2.736-6.12-6.336-6.12c-3.528 0-6.336 2.736-6.336 6.12s2.808 6.12 6.336 6.12zm17.432-40.032c3.528 0 6.336-2.736 6.336-6.12s-2.736-6.12-6.336-6.12c-3.528 0-6.336 2.736-6.336 6.12s2.808 6.12 6.336 6.12zm5.112 39.456c0.432 0 0.72-0.288 0.72-0.72v-34.56c0-0.432-0.288-0.72-0.72-0.72h-10.224c-0.432 0-0.72 0.288-0.72 0.72v34.56c0 0.432 0.288 0.72 0.72 0.72h10.224zm22.688 0.936c10.08 0 18.144-8.496 18.144-18.936s-8.064-18.936-18.144-18.936c-10.008 0-18.144 8.496-18.144 18.936s8.136 18.936 18.144 18.936zm0-10.656c-4.32 0-7.848-3.816-7.848-8.208 0-4.248 3.456-8.136 7.848-8.136s7.848 3.816 7.848 8.136c0 4.392-3.456 8.208-7.848 8.208z"/>
</svg>
