<svg id="svg" version="1.1" xmlns="http://www.w3.org/2000/svg" xmlns:xlink="http://www.w3.org/1999/xlink" width="400" height="287.1125611745514" viewBox="0, 0, 400,287.1125611745514"><g id="svgg"><path id="path0" d="M170.567 0.804 C 170.567 1.108,166.378 1.168,148.098 1.127 C 123.041 1.070,124.813 1.047,125.054 1.436 C 125.171 1.625,122.098 1.723,116.049 1.723 C 110.334 1.723,106.832 1.829,106.772 2.003 C 106.714 2.174,104.119 2.293,100.161 2.309 C 96.245 2.324,93.610 2.444,93.554 2.611 C 93.499 2.776,91.395 2.888,88.367 2.887 C 84.064 2.885,83.274 2.950,83.274 3.309 C 83.274 3.665,82.541 3.733,78.679 3.733 C 75.808 3.733,74.085 3.841,74.085 4.020 C 74.085 4.197,72.601 4.307,70.208 4.307 C 67.815 4.307,66.332 4.417,66.332 4.594 C 66.332 4.769,65.047 4.882,63.053 4.882 C 61.008 4.882,59.737 4.996,59.674 5.185 C 59.612 5.370,58.361 5.500,56.464 5.521 C 54.165 5.545,53.316 5.653,53.208 5.935 C 53.101 6.214,52.368 6.317,50.508 6.317 C 48.997 6.317,47.954 6.435,47.954 6.604 C 47.954 6.762,47.243 6.892,46.375 6.892 C 45.506 6.892,44.795 7.021,44.795 7.179 C 44.795 7.337,44.354 7.466,43.814 7.466 C 43.275 7.466,42.786 7.608,42.728 7.781 C 42.670 7.954,42.116 8.130,41.497 8.172 C 40.878 8.213,40.322 8.394,40.262 8.574 C 40.202 8.754,39.841 8.902,39.459 8.902 C 39.078 8.902,38.765 9.031,38.765 9.189 C 38.765 9.347,38.378 9.476,37.904 9.476 C 37.430 9.476,37.042 9.605,37.042 9.763 C 37.042 9.921,36.719 10.050,36.324 10.050 C 35.878 10.050,35.607 10.213,35.607 10.481 C 35.607 10.752,35.334 10.912,34.872 10.912 C 34.455 10.912,34.214 11.036,34.314 11.199 C 34.415 11.362,34.174 11.486,33.757 11.486 C 33.353 11.486,33.022 11.615,33.022 11.773 C 33.022 11.931,32.796 12.064,32.520 12.069 C 31.899 12.081,31.012 12.727,31.012 13.169 C 31.012 13.349,30.718 13.496,30.358 13.496 C 29.998 13.496,29.517 13.754,29.289 14.070 C 29.062 14.386,28.645 14.645,28.364 14.645 C 28.083 14.645,27.854 14.838,27.854 15.075 C 27.854 15.312,27.692 15.474,27.495 15.434 C 27.297 15.395,27.168 15.524,27.207 15.721 C 27.247 15.919,27.085 16.080,26.849 16.080 C 26.612 16.080,26.418 16.210,26.418 16.368 C 26.418 16.525,26.159 16.655,25.844 16.655 C 25.528 16.655,25.269 16.784,25.269 16.942 C 25.269 17.100,25.075 17.229,24.838 17.229 C 24.602 17.229,24.408 17.394,24.408 17.596 C 24.408 17.798,24.149 18.150,23.833 18.378 C 23.518 18.605,23.259 18.953,23.259 19.150 C 23.259 19.366,23.070 19.435,22.781 19.325 C 22.460 19.202,22.372 19.252,22.511 19.477 C 22.636 19.679,22.540 19.813,22.271 19.813 C 22.025 19.813,21.823 19.948,21.823 20.114 C 21.823 20.503,20.503 21.823,20.114 21.823 C 19.948 21.823,19.813 21.933,19.813 22.068 C 19.813 22.202,19.426 22.718,18.952 23.214 C 18.478 23.710,18.090 24.314,18.090 24.558 C 18.090 24.801,17.897 25.074,17.660 25.165 C 17.423 25.256,17.229 25.532,17.229 25.779 C 17.229 26.025,17.149 26.146,17.051 26.049 C 16.845 25.842,16.051 26.563,16.109 26.905 C 16.212 27.512,16.040 27.854,15.633 27.854 C 15.387 27.854,15.265 27.983,15.363 28.141 C 15.460 28.299,15.339 28.428,15.092 28.428 C 14.803 28.428,14.645 28.689,14.645 29.163 C 14.645 29.567,14.537 29.831,14.406 29.750 C 14.275 29.669,13.994 30.044,13.783 30.583 C 13.571 31.122,13.226 31.629,13.016 31.709 C 12.806 31.790,12.635 32.118,12.635 32.439 C 12.635 32.760,12.505 33.022,12.347 33.022 C 12.190 33.022,12.060 33.281,12.060 33.597 C 12.060 33.912,11.931 34.171,11.773 34.171 C 11.615 34.171,11.486 34.494,11.486 34.889 C 11.486 35.284,11.357 35.607,11.199 35.607 C 11.041 35.607,10.912 35.869,10.912 36.190 C 10.912 36.511,10.718 36.848,10.481 36.939 C 10.235 37.033,10.050 37.461,10.050 37.935 C 10.050 38.391,9.921 38.765,9.763 38.765 C 9.605 38.765,9.476 39.218,9.476 39.770 C 9.476 40.323,9.347 40.775,9.189 40.775 C 9.031 40.775,8.902 41.228,8.902 41.780 C 8.902 42.476,8.771 42.785,8.477 42.785 C 8.171 42.785,8.080 43.034,8.154 43.669 C 8.220 44.233,8.114 44.608,7.862 44.705 C 7.593 44.808,7.466 45.355,7.466 46.405 C 7.466 47.257,7.337 47.954,7.179 47.954 C 7.021 47.954,6.892 48.608,6.892 49.407 C 6.892 50.302,6.781 50.791,6.604 50.682 C 6.425 50.571,6.317 51.158,6.317 52.244 C 6.317 53.540,6.215 53.984,5.917 53.984 C 5.622 53.984,5.511 54.446,5.493 55.758 C 5.479 56.734,5.362 57.606,5.232 57.697 C 5.102 57.787,4.969 58.701,4.935 59.727 C 4.901 60.754,4.746 61.637,4.590 61.689 C 4.435 61.742,4.307 62.607,4.307 63.611 C 4.307 64.615,4.178 65.516,4.020 65.614 C 3.862 65.711,3.733 66.947,3.733 68.359 C 3.733 70.449,3.653 70.926,3.302 70.926 C 2.948 70.926,2.872 71.435,2.872 73.781 C 2.872 75.351,2.755 76.707,2.614 76.795 C 2.472 76.882,2.338 78.473,2.317 80.329 C 2.296 82.211,2.156 83.747,2.001 83.800 C 1.837 83.856,1.723 85.766,1.723 88.435 C 1.723 91.962,1.637 93.008,1.339 93.123 C 1.028 93.242,0.971 94.728,1.042 100.879 C 1.115 107.161,1.060 108.515,0.732 108.641 C 0.112 108.879,0.142 179.756,0.762 179.756 C 1.126 179.756,1.166 180.558,1.046 185.427 C 0.970 188.546,1.001 191.898,1.117 192.876 C 1.232 193.854,1.222 194.589,1.094 194.510 C 0.966 194.431,0.861 194.572,0.861 194.823 C 0.861 195.075,1.055 195.354,1.292 195.445 C 1.649 195.582,1.723 196.364,1.723 200.007 C 1.723 202.475,1.841 204.445,1.991 204.499 C 2.139 204.551,2.291 206.177,2.330 208.112 C 2.368 210.047,2.505 211.630,2.635 211.630 C 2.765 211.630,2.872 212.986,2.872 214.645 C 2.872 217.133,2.947 217.660,3.302 217.660 C 3.653 217.660,3.733 218.138,3.733 220.244 C 3.733 221.776,3.850 222.828,4.020 222.828 C 4.188 222.828,4.307 223.786,4.307 225.126 C 4.307 226.466,4.427 227.423,4.594 227.423 C 4.755 227.423,4.882 228.217,4.882 229.232 C 4.882 230.227,5.028 231.187,5.207 231.366 C 5.386 231.545,5.532 232.346,5.532 233.147 C 5.532 234.185,5.645 234.602,5.925 234.602 C 6.209 234.602,6.317 235.037,6.317 236.181 C 6.317 237.050,6.447 237.760,6.604 237.760 C 6.764 237.760,6.892 238.518,6.892 239.459 C 6.892 240.400,7.027 241.203,7.196 241.260 C 7.363 241.315,7.508 241.900,7.517 242.558 C 7.526 243.239,7.688 243.814,7.893 243.893 C 8.091 243.969,8.216 244.373,8.170 244.790 C 8.120 245.243,8.251 245.612,8.494 245.706 C 8.718 245.792,8.902 246.225,8.902 246.669 C 8.902 247.112,9.027 247.519,9.180 247.571 C 9.333 247.624,9.489 248.087,9.528 248.600 C 9.567 249.113,9.700 249.533,9.824 249.533 C 9.949 249.533,10.050 249.843,10.050 250.221 C 10.050 250.598,10.244 250.982,10.481 251.073 C 10.733 251.170,10.912 251.600,10.912 252.109 C 10.912 252.587,11.041 252.979,11.199 252.979 C 11.357 252.979,11.486 253.209,11.486 253.490 C 11.486 253.771,11.744 254.187,12.060 254.415 C 12.376 254.643,12.635 255.123,12.635 255.483 C 12.635 255.874,12.808 256.138,13.065 256.138 C 13.333 256.138,13.496 256.409,13.496 256.856 C 13.496 257.251,13.625 257.574,13.783 257.574 C 13.941 257.574,14.070 257.777,14.070 258.025 C 14.070 258.536,14.740 259.296,15.189 259.296 C 15.354 259.296,15.419 259.477,15.334 259.698 C 15.247 259.923,15.629 260.549,16.204 261.124 C 16.768 261.688,17.229 262.329,17.229 262.549 C 17.229 262.769,17.552 263.192,17.947 263.488 C 18.342 263.785,18.665 264.132,18.665 264.259 C 18.665 264.530,19.990 265.901,20.252 265.901 C 20.513 265.901,21.249 266.683,21.249 266.961 C 21.249 267.093,21.580 267.449,21.985 267.753 C 23.348 268.776,23.833 269.269,23.833 269.626 C 23.833 269.822,24.021 269.911,24.250 269.823 C 24.528 269.716,24.613 269.801,24.506 270.079 C 24.418 270.308,24.495 270.495,24.677 270.495 C 24.859 270.495,25.319 270.786,25.699 271.141 C 26.974 272.333,27.285 272.536,27.570 272.360 C 27.726 272.263,27.854 272.386,27.854 272.632 C 27.854 272.888,28.099 273.080,28.428 273.080 C 28.744 273.080,29.002 273.209,29.002 273.367 C 29.002 273.525,29.196 273.654,29.433 273.654 C 29.670 273.654,29.831 273.808,29.792 273.996 C 29.752 274.184,29.977 274.393,30.290 274.461 C 30.604 274.528,31.071 274.827,31.329 275.124 C 31.587 275.421,32.073 275.664,32.410 275.664 C 32.747 275.664,33.022 275.793,33.022 275.951 C 33.022 276.109,33.281 276.238,33.597 276.238 C 33.916 276.238,34.171 276.430,34.171 276.669 C 34.171 276.937,34.442 277.100,34.889 277.100 C 35.284 277.100,35.607 277.229,35.607 277.387 C 35.607 277.545,35.865 277.674,36.181 277.674 C 36.497 277.674,36.755 277.803,36.755 277.961 C 36.755 278.119,37.194 278.248,37.730 278.248 C 38.331 278.248,38.767 278.413,38.869 278.679 C 38.960 278.916,39.297 279.110,39.618 279.110 C 39.939 279.110,40.201 279.239,40.201 279.397 C 40.201 279.555,40.653 279.684,41.206 279.684 C 41.759 279.684,42.211 279.813,42.211 279.971 C 42.211 280.129,42.793 280.258,43.503 280.258 C 44.214 280.258,44.795 280.388,44.795 280.546 C 44.795 280.704,45.492 280.833,46.344 280.833 C 47.340 280.833,47.943 280.964,48.034 281.202 C 48.131 281.453,48.931 281.590,50.560 281.632 C 51.872 281.665,53.017 281.807,53.105 281.947 C 53.194 282.087,54.688 282.222,56.425 282.248 C 58.162 282.274,59.627 282.419,59.679 282.569 C 59.732 282.721,61.235 282.843,63.053 282.843 C 65.047 282.843,66.332 282.955,66.332 283.130 C 66.332 283.307,67.815 283.417,70.208 283.417 C 73.463 283.417,74.085 283.486,74.085 283.848 C 74.085 284.213,74.787 284.279,78.679 284.279 C 81.551 284.279,83.274 284.386,83.274 284.566 C 83.274 284.746,85.188 284.853,88.442 284.853 C 91.697 284.853,93.611 284.959,93.611 285.140 C 93.611 285.323,96.004 285.427,100.215 285.427 C 105.582 285.427,106.820 285.500,106.820 285.816 C 106.820 286.138,108.421 286.190,115.995 286.116 C 123.553 286.042,125.144 286.093,125.023 286.409 C 124.850 286.859,208.131 287.374,227.710 287.045 C 233.790 286.942,247.197 286.856,257.502 286.853 C 273.487 286.848,276.238 286.787,276.238 286.439 C 276.238 286.094,277.628 286.045,285.309 286.117 C 292.721 286.187,294.407 286.132,294.529 285.815 C 294.647 285.505,295.972 285.427,301.108 285.427 C 305.203 285.427,307.538 285.323,307.538 285.140 C 307.538 284.959,309.506 284.853,312.867 284.853 C 316.347 284.853,318.135 284.753,318.019 284.566 C 317.903 284.379,319.447 284.279,322.438 284.279 C 326.178 284.279,327.079 284.200,327.271 283.858 C 327.457 283.524,328.295 283.429,331.305 283.400 C 333.395 283.379,335.104 283.246,335.104 283.103 C 335.104 282.960,336.590 282.843,338.406 282.843 C 340.416 282.843,341.709 282.730,341.709 282.556 C 341.709 282.382,342.945 282.268,344.843 282.268 C 346.808 282.268,348.016 282.154,348.080 281.962 C 348.141 281.778,349.192 281.649,350.712 281.637 C 352.574 281.624,353.281 281.515,353.392 281.226 C 353.494 280.960,354.046 280.833,355.092 280.833 C 355.943 280.833,356.640 280.704,356.640 280.546 C 356.640 280.388,357.222 280.258,357.933 280.258 C 358.643 280.258,359.225 280.129,359.225 279.971 C 359.225 279.813,359.580 279.680,360.014 279.675 C 360.449 279.670,361.049 279.480,361.349 279.253 C 361.648 279.027,362.004 278.909,362.138 278.992 C 362.273 279.076,362.383 278.942,362.383 278.696 C 362.383 278.376,362.670 278.248,363.388 278.248 C 363.941 278.248,364.393 278.119,364.393 277.961 C 364.393 277.803,364.716 277.674,365.111 277.674 C 365.506 277.674,365.829 277.545,365.829 277.387 C 365.829 277.229,366.088 277.100,366.403 277.100 C 366.723 277.100,366.978 276.908,366.978 276.669 C 366.978 276.401,367.249 276.238,367.696 276.238 C 368.090 276.238,368.413 276.109,368.413 275.951 C 368.413 275.793,368.672 275.664,368.988 275.664 C 369.304 275.664,369.562 275.535,369.562 275.377 C 369.562 275.219,369.764 275.090,370.010 275.090 C 370.256 275.090,370.378 274.961,370.280 274.803 C 370.126 274.553,370.708 274.379,371.357 274.481 C 371.475 274.500,371.572 274.377,371.572 274.208 C 371.572 273.722,372.341 273.080,372.924 273.080 C 373.216 273.080,373.642 272.821,373.869 272.505 C 374.097 272.190,374.449 271.931,374.651 271.931 C 374.853 271.931,376.052 270.897,377.315 269.634 C 378.579 268.370,379.742 267.337,379.899 267.337 C 380.057 267.337,380.187 267.202,380.187 267.036 C 380.187 266.647,381.507 265.327,381.896 265.327 C 382.062 265.327,382.197 265.217,382.197 265.082 C 382.197 264.948,382.584 264.432,383.058 263.936 C 383.532 263.440,383.920 262.775,383.920 262.458 C 383.920 262.140,384.058 261.881,384.227 261.881 C 384.685 261.881,385.355 261.125,385.355 260.609 C 385.355 260.361,385.485 260.158,385.642 260.158 C 385.800 260.158,385.930 259.964,385.930 259.727 C 385.930 259.490,386.059 259.296,386.217 259.296 C 386.375 259.296,386.504 259.038,386.504 258.722 C 386.504 258.406,386.689 258.148,386.916 258.148 C 387.143 258.148,387.492 257.696,387.692 257.143 C 387.892 256.590,388.158 256.138,388.285 256.138 C 388.411 256.138,388.514 255.815,388.514 255.420 C 388.514 254.973,388.677 254.702,388.945 254.702 C 389.184 254.702,389.375 254.447,389.375 254.128 C 389.375 253.812,389.505 253.553,389.663 253.553 C 389.821 253.553,389.950 253.158,389.950 252.675 C 389.950 252.163,390.069 251.871,390.237 251.974 C 390.395 252.072,390.524 251.886,390.524 251.560 C 390.524 251.235,390.653 250.969,390.811 250.969 C 390.969 250.969,391.098 250.517,391.098 249.964 C 391.098 249.262,391.228 248.959,391.529 248.959 C 391.797 248.959,391.960 248.688,391.960 248.241 C 391.960 247.846,392.089 247.523,392.247 247.523 C 392.405 247.523,392.534 246.942,392.534 246.231 C 392.534 245.520,392.663 244.939,392.821 244.939 C 392.979 244.939,393.108 244.487,393.108 243.934 C 393.108 243.381,393.238 242.929,393.396 242.929 C 393.553 242.929,393.683 242.218,393.683 241.350 C 393.683 240.137,393.783 239.770,394.113 239.770 C 394.432 239.770,394.544 239.435,394.544 238.478 C 394.544 237.767,394.673 237.186,394.831 237.186 C 394.989 237.186,395.118 236.475,395.118 235.607 C 395.118 234.738,395.234 234.027,395.374 234.027 C 395.515 234.027,395.643 233.170,395.659 232.123 C 395.679 230.788,395.816 230.122,396.119 229.897 C 396.442 229.657,396.533 229.094,396.481 227.662 C 396.438 226.506,396.525 225.766,396.698 225.795 C 396.856 225.822,397.023 225.040,397.070 224.049 C 397.117 223.062,397.267 222.254,397.402 222.254 C 397.538 222.254,397.661 221.123,397.676 219.742 C 397.691 218.347,397.831 217.186,397.990 217.133 C 398.157 217.078,398.277 215.785,398.277 214.046 C 398.277 211.593,398.354 211.055,398.703 211.055 C 399.063 211.055,399.113 210.506,399.023 207.546 C 398.931 204.545,398.984 203.987,399.386 203.693 C 400.335 202.999,400.226 83.274,399.276 83.274 C 398.989 83.274,398.929 82.475,399.009 79.684 C 399.095 76.688,399.043 76.095,398.695 76.095 C 398.356 76.095,398.277 75.526,398.277 73.080 C 398.277 71.261,398.163 70.065,397.990 70.065 C 397.820 70.065,397.703 69.012,397.703 67.480 C 397.703 65.949,397.586 64.896,397.416 64.896 C 397.250 64.896,397.128 64.006,397.128 62.800 C 397.128 61.647,396.987 60.562,396.814 60.389 C 396.640 60.215,396.504 59.416,396.510 58.612 C 396.517 57.709,396.363 56.993,396.107 56.737 C 395.845 56.475,395.693 55.734,395.693 54.723 C 395.693 53.843,395.564 53.123,395.406 53.123 C 395.248 53.123,395.118 52.412,395.118 51.543 C 395.118 50.675,394.989 49.964,394.831 49.964 C 394.673 49.964,394.544 49.253,394.544 48.385 C 394.544 47.172,394.444 46.805,394.113 46.805 C 393.795 46.805,393.683 46.472,393.683 45.530 C 393.683 44.829,393.553 44.175,393.396 44.078 C 393.238 43.980,393.108 43.520,393.108 43.056 C 393.108 42.591,392.979 42.211,392.821 42.211 C 392.663 42.211,392.534 41.814,392.534 41.329 C 392.534 40.844,392.352 40.265,392.129 40.042 C 391.906 39.819,391.792 39.378,391.874 39.061 C 391.970 38.694,391.857 38.421,391.562 38.307 C 391.307 38.210,391.098 37.813,391.098 37.425 C 391.098 37.029,390.973 36.799,390.811 36.899 C 390.640 37.004,390.524 36.662,390.524 36.054 C 390.524 35.492,390.395 35.032,390.237 35.032 C 390.079 35.032,389.946 34.806,389.941 34.530 C 389.929 33.909,389.283 33.022,388.841 33.022 C 388.661 33.022,388.514 32.699,388.514 32.304 C 388.514 31.910,388.385 31.587,388.227 31.587 C 388.069 31.587,387.940 31.328,387.940 31.012 C 387.940 30.682,387.748 30.438,387.490 30.438 C 387.183 30.438,387.093 30.269,387.208 29.908 C 387.322 29.549,387.142 29.202,386.653 28.835 C 386.255 28.536,385.929 28.096,385.929 27.857 C 385.929 27.323,384.692 25.844,384.245 25.844 C 384.066 25.844,383.920 25.581,383.920 25.260 C 383.920 24.668,381.969 22.481,381.559 22.613 C 381.436 22.653,381.335 22.550,381.335 22.385 C 381.335 21.995,380.015 20.675,379.625 20.675 C 379.460 20.675,379.325 20.473,379.325 20.227 C 379.325 19.981,379.196 19.859,379.038 19.957 C 378.880 20.055,378.751 19.933,378.751 19.687 C 378.751 19.441,378.536 19.239,378.272 19.239 C 378.009 19.239,377.874 19.159,377.971 19.061 C 378.189 18.843,377.474 18.090,377.049 18.090 C 376.879 18.090,376.741 17.955,376.741 17.790 C 376.741 17.267,375.355 16.080,374.744 16.080 C 374.403 16.080,374.156 15.892,374.156 15.633 C 374.156 15.387,374.027 15.265,373.869 15.363 C 373.711 15.460,373.582 15.339,373.582 15.092 C 373.582 14.818,373.329 14.645,372.928 14.645 C 372.568 14.645,372.087 14.386,371.859 14.070 C 371.632 13.754,371.274 13.496,371.064 13.496 C 370.855 13.496,370.384 13.173,370.018 12.778 C 369.652 12.383,369.069 12.060,368.723 12.060 C 368.376 12.060,368.172 11.931,368.270 11.773 C 368.371 11.610,368.129 11.486,367.713 11.486 C 367.308 11.486,366.978 11.357,366.978 11.199 C 366.978 11.041,366.647 10.912,366.243 10.912 C 365.823 10.912,365.585 10.788,365.687 10.623 C 365.785 10.463,365.631 10.260,365.345 10.171 C 365.058 10.081,364.600 9.889,364.326 9.742 C 364.051 9.596,363.502 9.476,363.105 9.476 C 362.708 9.476,362.383 9.347,362.383 9.189 C 362.383 9.031,362.180 8.902,361.932 8.902 C 361.684 8.902,361.286 8.707,361.049 8.469 C 360.811 8.232,360.313 8.092,359.942 8.159 C 359.528 8.234,359.207 8.121,359.108 7.864 C 359.002 7.587,358.604 7.470,357.920 7.516 C 357.355 7.555,356.803 7.446,356.694 7.274 C 356.586 7.103,355.861 6.951,355.085 6.937 C 354.308 6.922,353.540 6.777,353.376 6.614 C 353.213 6.451,351.943 6.317,350.553 6.317 C 348.545 6.317,348.026 6.232,348.026 5.904 C 348.026 5.568,347.460 5.498,344.992 5.532 C 343.034 5.559,341.889 5.461,341.762 5.255 C 341.638 5.055,340.382 4.924,338.406 4.905 C 336.614 4.887,335.206 4.751,335.152 4.591 C 335.095 4.423,333.481 4.307,331.204 4.307 C 328.827 4.307,327.351 4.197,327.351 4.020 C 327.351 3.841,325.628 3.733,322.757 3.733 C 318.838 3.733,318.162 3.669,318.162 3.297 C 318.162 2.921,317.431 2.864,312.928 2.886 C 309.447 2.903,307.660 2.808,307.592 2.604 C 307.524 2.398,305.367 2.297,301.053 2.297 C 296.953 2.297,294.616 2.193,294.616 2.010 C 294.616 1.825,291.370 1.723,285.451 1.723 C 278.374 1.723,276.259 1.641,276.167 1.364 C 276.072 1.080,271.305 1.023,253.314 1.089 C 234.866 1.158,230.581 1.104,230.581 0.802 C 230.581 0.501,224.930 0.431,200.574 0.431 C 176.133 0.431,170.567 0.500,170.567 0.804 M160.756 59.454 C 160.809 59.604,161.293 59.727,161.833 59.727 C 162.373 59.727,162.814 59.856,162.814 60.014 C 162.814 60.172,163.082 60.302,163.409 60.302 C 164.045 60.302,164.824 60.923,164.824 61.430 C 164.824 61.599,165.083 61.737,165.398 61.737 C 165.714 61.737,165.973 61.866,165.973 62.024 C 165.973 62.182,166.265 62.312,166.622 62.312 C 166.980 62.312,167.514 62.634,167.811 63.029 C 168.137 63.464,168.637 63.747,169.076 63.747 C 169.475 63.747,169.721 63.827,169.624 63.925 C 169.336 64.213,170.188 64.896,170.834 64.896 C 171.161 64.896,171.429 65.025,171.429 65.183 C 171.429 65.341,171.687 65.470,172.003 65.470 C 172.319 65.470,172.577 65.656,172.577 65.882 C 172.577 66.109,173.029 66.458,173.582 66.658 C 174.135 66.858,174.587 67.125,174.587 67.251 C 174.587 67.377,174.789 67.480,175.035 67.480 C 175.281 67.480,175.403 67.609,175.305 67.767 C 175.204 67.930,175.446 68.055,175.862 68.055 C 176.324 68.055,176.597 68.215,176.597 68.485 C 176.597 68.725,176.853 68.916,177.172 68.916 C 177.487 68.916,177.746 69.045,177.746 69.203 C 177.746 69.361,177.940 69.490,178.177 69.490 C 178.413 69.490,178.607 69.620,178.607 69.777 C 178.607 69.935,178.866 70.065,179.182 70.065 C 179.497 70.065,179.756 70.212,179.756 70.392 C 179.756 70.833,180.643 71.480,181.263 71.491 C 181.540 71.496,181.766 71.630,181.766 71.788 C 181.766 71.945,182.024 72.075,182.340 72.075 C 182.656 72.075,182.915 72.204,182.915 72.362 C 182.915 72.520,183.108 72.649,183.345 72.649 C 183.582 72.649,183.776 72.843,183.776 73.080 C 183.776 73.319,184.031 73.510,184.350 73.510 C 184.666 73.510,184.925 73.640,184.925 73.798 C 184.925 73.955,185.118 74.085,185.355 74.085 C 185.592 74.085,185.786 74.214,185.786 74.372 C 185.786 74.530,186.045 74.659,186.360 74.659 C 186.676 74.659,186.935 74.788,186.935 74.946 C 186.935 75.104,187.258 75.233,187.653 75.233 C 188.047 75.233,188.370 75.372,188.370 75.541 C 188.370 76.053,189.153 76.669,189.803 76.669 C 190.139 76.669,190.335 76.798,190.237 76.956 C 190.139 77.114,190.261 77.243,190.507 77.243 C 190.753 77.243,190.955 77.386,190.955 77.561 C 190.955 77.744,191.165 77.798,191.449 77.690 C 191.720 77.585,191.855 77.587,191.749 77.693 C 191.464 77.979,192.267 78.679,192.881 78.679 C 193.173 78.679,193.599 78.938,193.826 79.253 C 194.054 79.569,194.535 79.828,194.895 79.828 C 195.255 79.828,195.549 79.966,195.549 80.135 C 195.549 80.614,196.373 81.321,196.698 81.120 C 196.858 81.021,197.067 81.142,197.161 81.389 C 197.256 81.636,197.596 81.838,197.916 81.838 C 198.236 81.838,198.798 82.161,199.164 82.556 C 199.530 82.950,200.000 83.274,200.210 83.274 C 200.420 83.274,200.777 83.532,201.005 83.848 C 201.233 84.164,201.713 84.422,202.073 84.422 C 202.464 84.422,202.728 84.596,202.728 84.853 C 202.728 85.090,202.927 85.284,203.171 85.284 C 203.414 85.284,203.891 85.542,204.230 85.858 C 204.569 86.174,205.033 86.432,205.261 86.432 C 205.489 86.432,205.970 86.774,206.328 87.191 C 206.741 87.671,207.149 87.886,207.439 87.775 C 207.730 87.663,207.897 87.752,207.897 88.020 C 207.897 88.252,208.155 88.442,208.471 88.442 C 208.787 88.442,209.045 88.571,209.045 88.729 C 209.045 88.887,209.239 89.017,209.476 89.017 C 209.713 89.017,209.907 89.146,209.907 89.304 C 209.907 89.462,210.165 89.591,210.481 89.591 C 210.800 89.591,211.055 89.782,211.055 90.022 C 211.055 90.258,211.249 90.452,211.486 90.452 C 211.723 90.452,211.917 90.581,211.917 90.739 C 211.917 90.897,212.175 91.027,212.491 91.027 C 212.807 91.027,213.065 91.156,213.065 91.314 C 213.065 91.472,213.388 91.601,213.783 91.601 C 214.178 91.601,214.501 91.739,214.501 91.909 C 214.501 92.366,215.257 93.037,215.773 93.037 C 216.021 93.037,216.224 93.166,216.224 93.324 C 216.224 93.482,216.418 93.611,216.655 93.611 C 216.892 93.611,217.085 93.740,217.085 93.898 C 217.085 94.056,217.404 94.185,217.794 94.185 C 218.298 94.185,218.457 94.307,218.342 94.605 C 218.227 94.904,218.346 94.992,218.758 94.913 C 219.122 94.843,219.527 95.059,219.857 95.499 C 220.145 95.882,220.617 96.195,220.907 96.195 C 221.486 96.195,222.254 96.839,222.254 97.323 C 222.254 97.493,222.513 97.631,222.828 97.631 C 223.144 97.631,223.403 97.760,223.403 97.918 C 223.403 98.076,223.695 98.205,224.052 98.205 C 224.410 98.205,224.944 98.528,225.241 98.923 C 225.567 99.357,226.067 99.641,226.506 99.641 C 226.905 99.641,227.151 99.721,227.054 99.819 C 226.766 100.106,227.618 100.790,228.264 100.790 C 228.591 100.790,228.859 100.919,228.859 101.077 C 228.859 101.235,229.117 101.364,229.433 101.364 C 229.749 101.364,230.007 101.502,230.007 101.672 C 230.007 102.327,230.736 102.800,231.747 102.800 C 232.072 102.800,232.258 102.929,232.161 103.087 C 232.063 103.245,232.192 103.374,232.448 103.374 C 232.703 103.374,232.833 103.503,232.735 103.661 C 232.634 103.824,232.876 103.948,233.292 103.948 C 233.754 103.948,234.027 104.108,234.027 104.379 C 234.027 104.618,234.283 104.810,234.602 104.810 C 234.917 104.810,235.176 104.939,235.176 105.097 C 235.176 105.255,235.370 105.384,235.607 105.384 C 235.844 105.384,236.037 105.513,236.037 105.671 C 236.037 105.829,236.296 105.958,236.612 105.958 C 236.927 105.958,237.186 106.106,237.186 106.286 C 237.186 106.773,238.099 107.375,238.854 107.385 C 239.221 107.390,239.438 107.522,239.340 107.681 C 239.242 107.839,239.396 107.973,239.682 107.978 C 240.316 107.989,241.206 108.630,241.206 109.077 C 241.206 109.257,241.464 109.404,241.780 109.404 C 242.096 109.404,242.355 109.533,242.355 109.691 C 242.355 109.849,242.548 109.978,242.785 109.978 C 243.022 109.978,243.216 110.108,243.216 110.266 C 243.216 110.424,243.475 110.553,243.790 110.553 C 244.106 110.553,244.365 110.682,244.365 110.840 C 244.365 110.998,244.688 111.127,245.083 111.127 C 245.477 111.127,245.800 111.266,245.800 111.435 C 245.800 111.814,246.547 112.587,246.862 112.534 C 247.440 112.436,247.829 112.588,247.667 112.850 C 247.569 113.008,247.632 113.137,247.806 113.137 C 248.103 113.137,248.422 113.355,249.379 114.214 C 249.599 114.411,250.000 114.573,250.269 114.573 C 250.538 114.573,250.971 114.819,251.232 115.119 C 251.492 115.419,251.997 115.710,252.354 115.765 C 252.710 115.820,252.992 115.967,252.980 116.091 C 252.940 116.516,253.800 117.157,254.411 117.157 C 254.748 117.157,254.943 117.286,254.846 117.444 C 254.747 117.604,254.964 117.732,255.335 117.732 C 255.711 117.732,256.237 118.045,256.541 118.449 C 256.837 118.844,257.273 119.167,257.508 119.167 C 257.744 119.167,258.165 119.430,258.444 119.751 C 258.722 120.073,259.060 120.316,259.195 120.292 C 259.804 120.183,260.158 120.350,260.158 120.747 C 260.158 120.983,260.357 121.177,260.601 121.177 C 260.844 121.177,261.321 121.436,261.660 121.752 C 261.999 122.067,262.463 122.326,262.691 122.326 C 262.919 122.326,263.400 122.667,263.758 123.085 C 264.171 123.565,264.579 123.779,264.869 123.668 C 265.160 123.557,265.327 123.646,265.327 123.914 C 265.327 124.146,265.585 124.336,265.901 124.336 C 266.217 124.336,266.475 124.465,266.475 124.623 C 266.475 124.781,266.669 124.910,266.906 124.910 C 267.143 124.910,267.337 125.039,267.337 125.197 C 267.337 125.355,267.595 125.485,267.911 125.485 C 268.227 125.485,268.485 125.632,268.485 125.812 C 268.485 126.253,269.372 126.900,269.993 126.911 C 270.269 126.916,270.495 127.050,270.495 127.207 C 270.495 127.365,270.695 127.495,270.940 127.495 C 271.184 127.495,271.684 127.818,272.050 128.212 C 272.415 128.607,272.902 128.930,273.130 128.930 C 273.359 128.930,273.830 129.195,274.178 129.519 C 274.526 129.843,274.923 130.038,275.061 129.953 C 275.368 129.764,276.018 130.491,275.766 130.742 C 275.667 130.841,275.851 130.871,276.175 130.809 C 276.553 130.736,276.951 130.945,277.287 131.392 C 277.575 131.775,278.038 132.089,278.317 132.089 C 278.595 132.089,278.823 132.218,278.823 132.376 C 278.823 132.534,279.017 132.663,279.253 132.663 C 279.490 132.663,279.684 132.857,279.684 133.094 C 279.684 133.333,279.939 133.525,280.258 133.525 C 280.574 133.525,280.833 133.654,280.833 133.812 C 280.833 133.970,280.971 134.099,281.140 134.099 C 281.538 134.099,282.268 134.830,282.268 135.227 C 282.268 135.396,282.398 135.535,282.556 135.535 C 282.714 135.535,282.843 135.771,282.843 136.061 C 282.843 136.350,283.166 136.759,283.561 136.971 C 284.106 137.262,284.279 137.585,284.279 138.311 C 284.279 138.837,284.408 139.268,284.566 139.268 C 284.724 139.268,284.853 139.709,284.853 140.249 C 284.853 140.788,285.014 141.284,285.212 141.350 C 285.460 141.432,285.571 142.191,285.571 143.800 C 285.571 145.282,285.440 146.261,285.212 146.490 C 285.014 146.687,284.853 147.210,284.853 147.653 C 284.853 148.095,284.724 148.457,284.566 148.457 C 284.408 148.457,284.279 148.887,284.279 149.413 C 284.279 150.139,284.106 150.462,283.561 150.754 C 283.166 150.965,282.843 151.374,282.843 151.662 C 282.843 152.296,281.738 153.625,281.212 153.625 C 281.003 153.625,280.833 153.819,280.833 154.056 C 280.833 154.293,280.634 154.487,280.390 154.487 C 280.147 154.487,279.670 154.745,279.331 155.061 C 278.992 155.377,278.536 155.635,278.317 155.635 C 277.846 155.635,277.100 156.327,277.100 156.763 C 277.100 156.933,276.791 157.071,276.413 157.071 C 276.035 157.071,275.652 157.263,275.562 157.497 C 275.469 157.739,275.208 157.850,274.957 157.753 C 274.714 157.660,274.515 157.727,274.515 157.902 C 274.515 158.077,274.335 158.220,274.115 158.220 C 273.895 158.220,273.638 158.422,273.543 158.669 C 273.448 158.916,273.240 159.037,273.080 158.938 C 272.920 158.839,272.711 158.960,272.616 159.206 C 272.521 159.453,272.264 159.655,272.044 159.655 C 271.824 159.655,271.644 159.785,271.644 159.943 C 271.644 160.101,271.385 160.230,271.070 160.230 C 270.754 160.230,270.495 160.359,270.495 160.517 C 270.495 160.675,270.246 160.804,269.940 160.804 C 269.635 160.804,269.304 161.062,269.203 161.378 C 269.103 161.693,268.679 162.037,268.260 162.142 C 267.842 162.247,267.245 162.571,266.933 162.861 C 266.622 163.151,266.133 163.388,265.847 163.388 C 265.561 163.388,265.327 163.582,265.327 163.819 C 265.327 164.067,265.067 164.250,264.714 164.250 C 264.377 164.250,263.893 164.490,263.637 164.783 C 263.382 165.076,262.880 165.409,262.523 165.522 C 262.152 165.639,261.956 165.862,262.067 166.042 C 262.192 166.245,262.091 166.292,261.784 166.174 C 261.472 166.054,261.307 166.137,261.307 166.412 C 261.307 166.644,261.059 166.834,260.756 166.834 C 260.453 166.834,260.161 166.969,260.106 167.134 C 260.051 167.299,259.726 167.455,259.384 167.481 C 259.042 167.507,258.825 167.630,258.903 167.755 C 258.980 167.880,258.842 167.983,258.596 167.983 C 258.349 167.983,258.148 168.177,258.148 168.413 C 258.148 168.670,257.884 168.844,257.493 168.844 C 257.133 168.844,256.653 169.103,256.425 169.419 C 256.197 169.734,255.709 169.993,255.340 169.993 C 254.965 169.993,254.747 170.120,254.846 170.280 C 254.943 170.438,254.775 170.567,254.472 170.567 C 254.169 170.567,253.678 170.890,253.382 171.285 C 253.085 171.680,252.598 172.003,252.299 172.003 C 251.999 172.003,251.545 172.229,251.290 172.506 C 250.458 173.407,249.671 173.947,249.930 173.439 C 250.107 173.094,250.075 173.097,249.770 173.458 C 249.561 173.706,248.979 174.089,248.477 174.309 C 247.975 174.529,247.628 174.811,247.705 174.935 C 247.781 175.060,247.514 175.162,247.110 175.162 C 246.705 175.162,246.375 175.300,246.375 175.469 C 246.375 175.976,245.595 176.597,244.959 176.597 C 244.632 176.597,244.365 176.726,244.365 176.884 C 244.365 177.042,244.092 177.172,243.760 177.172 C 243.362 177.172,243.207 177.308,243.307 177.570 C 243.415 177.849,243.295 177.925,242.907 177.823 C 242.530 177.725,242.355 177.826,242.355 178.143 C 242.355 178.416,242.118 178.607,241.780 178.607 C 241.464 178.607,241.206 178.737,241.206 178.894 C 241.206 179.052,241.012 179.182,240.775 179.182 C 240.538 179.182,240.345 179.311,240.345 179.469 C 240.345 179.627,240.072 179.756,239.740 179.756 C 239.333 179.756,239.186 179.890,239.292 180.167 C 239.403 180.457,239.281 180.545,238.878 180.468 C 238.530 180.401,238.067 180.633,237.695 181.062 C 237.358 181.449,236.847 181.766,236.560 181.766 C 236.272 181.766,236.037 181.895,236.037 182.053 C 236.037 182.211,235.844 182.340,235.607 182.340 C 235.370 182.340,235.175 182.502,235.174 182.699 C 235.171 183.080,233.905 183.776,233.214 183.776 C 232.988 183.776,232.569 184.045,232.285 184.373 C 232.000 184.701,231.583 184.997,231.358 185.030 C 230.824 185.108,229.984 185.954,230.212 186.183 C 230.310 186.280,230.045 186.360,229.624 186.360 C 229.203 186.360,228.859 186.490,228.859 186.648 C 228.859 186.805,228.536 186.935,228.141 186.935 C 227.720 186.935,227.453 187.083,227.495 187.294 C 227.534 187.491,227.405 187.620,227.207 187.581 C 227.010 187.541,226.849 187.703,226.849 187.940 C 226.849 188.197,226.584 188.370,226.194 188.370 C 225.834 188.370,225.353 188.629,225.126 188.945 C 224.898 189.261,224.417 189.519,224.057 189.519 C 223.667 189.519,223.403 189.693,223.403 189.950 C 223.403 190.187,223.173 190.380,222.892 190.380 C 222.611 190.380,222.195 190.639,221.967 190.955 C 221.739 191.271,221.314 191.529,221.022 191.529 C 220.439 191.529,219.670 192.171,219.670 192.657 C 219.670 192.826,219.361 192.965,218.983 192.965 C 218.605 192.965,218.222 193.156,218.132 193.391 C 218.039 193.633,217.778 193.744,217.527 193.647 C 217.284 193.554,217.085 193.621,217.085 193.796 C 217.085 193.970,216.905 194.113,216.685 194.113 C 216.465 194.113,216.208 194.315,216.113 194.562 C 216.018 194.809,215.827 194.941,215.688 194.855 C 215.549 194.769,215.194 195.019,214.900 195.411 C 214.606 195.803,214.072 196.123,213.715 196.123 C 213.358 196.123,213.065 196.253,213.065 196.411 C 213.065 196.569,212.816 196.698,212.510 196.698 C 212.205 196.698,211.873 196.958,211.772 197.276 C 211.671 197.594,211.468 197.781,211.322 197.690 C 211.175 197.599,211.055 197.662,211.055 197.829 C 211.055 197.997,210.856 198.134,210.613 198.134 C 210.369 198.134,209.892 198.392,209.553 198.708 C 209.214 199.024,208.703 199.282,208.417 199.282 C 208.131 199.282,207.897 199.476,207.897 199.713 C 207.897 199.961,207.637 200.144,207.284 200.144 C 206.947 200.144,206.463 200.384,206.207 200.677 C 205.952 200.970,205.450 201.302,205.093 201.415 C 204.722 201.533,204.526 201.756,204.637 201.936 C 204.762 202.138,204.661 202.186,204.354 202.068 C 204.042 201.948,203.877 202.031,203.877 202.306 C 203.877 202.538,203.673 202.728,203.425 202.728 C 203.177 202.728,202.773 202.929,202.527 203.175 C 202.281 203.421,201.896 203.552,201.671 203.466 C 201.445 203.379,201.341 203.435,201.438 203.593 C 201.534 203.749,201.412 203.877,201.166 203.877 C 200.919 203.877,200.750 204.035,200.790 204.229 C 200.829 204.422,200.543 204.629,200.153 204.688 C 199.763 204.746,199.231 205.040,198.971 205.340 C 198.710 205.641,198.370 205.887,198.216 205.887 C 197.666 205.887,196.260 206.729,195.845 207.308 C 195.612 207.632,195.183 207.897,194.891 207.897 C 194.317 207.897,193.539 208.536,193.539 209.008 C 193.539 209.168,193.274 209.248,192.951 209.186 C 192.616 209.122,192.293 209.252,192.202 209.490 C 192.114 209.719,191.797 209.907,191.498 209.907 C 191.199 209.907,190.955 210.036,190.955 210.194 C 190.955 210.352,190.765 210.481,190.533 210.481 C 190.294 210.481,190.177 210.651,190.263 210.875 C 190.374 211.165,190.220 211.232,189.679 211.129 C 189.225 211.042,188.945 211.118,188.945 211.329 C 188.945 211.866,188.183 212.491,187.529 212.491 C 187.202 212.491,186.935 212.620,186.935 212.778 C 186.935 212.936,186.676 213.065,186.360 213.065 C 186.045 213.065,185.786 213.255,185.786 213.487 C 185.786 213.744,185.618 213.844,185.355 213.743 C 185.083 213.639,184.925 213.747,184.925 214.040 C 184.925 214.310,184.686 214.501,184.350 214.501 C 184.034 214.501,183.776 214.630,183.776 214.788 C 183.776 214.946,183.575 215.075,183.328 215.075 C 183.082 215.075,182.961 215.205,183.058 215.363 C 183.158 215.524,182.928 215.650,182.532 215.650 C 182.144 215.650,181.753 215.845,181.661 216.083 C 181.570 216.321,181.394 216.500,181.271 216.480 C 180.669 216.381,180.330 216.553,180.330 216.959 C 180.330 217.205,180.201 217.327,180.043 217.229 C 179.885 217.131,179.756 217.188,179.756 217.356 C 179.756 217.523,179.497 217.660,179.182 217.660 C 178.866 217.660,178.607 217.789,178.607 217.947 C 178.607 218.105,178.413 218.234,178.177 218.234 C 177.940 218.234,177.745 218.396,177.744 218.593 C 177.741 218.969,176.478 219.670,175.802 219.670 C 175.311 219.670,174.552 220.400,174.792 220.641 C 174.890 220.738,174.755 220.835,174.492 220.854 C 173.459 220.932,173.298 221.000,173.367 221.334 C 173.406 221.524,173.245 221.680,173.008 221.680 C 172.771 221.680,172.577 221.809,172.577 221.967 C 172.577 222.125,172.319 222.254,172.003 222.254 C 171.687 222.254,171.429 222.383,171.429 222.541 C 171.429 222.699,171.106 222.828,170.711 222.828 C 170.290 222.828,170.022 222.977,170.065 223.187 C 170.104 223.385,169.975 223.514,169.777 223.475 C 169.580 223.435,169.419 223.597,169.419 223.833 C 169.419 224.090,169.154 224.264,168.764 224.264 C 168.404 224.264,167.923 224.523,167.696 224.838 C 167.468 225.154,166.987 225.413,166.627 225.413 C 166.237 225.413,165.973 225.587,165.973 225.844 C 165.973 226.080,165.743 226.274,165.462 226.274 C 165.181 226.274,164.765 226.533,164.537 226.849 C 164.309 227.164,163.839 227.423,163.492 227.423 C 163.146 227.423,162.819 227.548,162.766 227.701 C 162.714 227.854,162.251 228.010,161.737 228.049 C 161.204 228.089,160.804 228.278,160.804 228.489 C 160.804 229.090,155.101 229.009,154.869 228.405 C 154.764 228.130,154.481 228.007,154.155 228.092 C 153.858 228.170,153.433 228.051,153.210 227.828 C 152.987 227.605,152.537 227.423,152.210 227.423 C 151.883 227.423,151.615 227.294,151.615 227.136 C 151.615 226.978,151.423 226.849,151.189 226.849 C 150.634 226.849,146.447 222.661,146.447 222.106 C 146.447 221.872,146.317 221.680,146.159 221.680 C 146.001 221.680,145.872 221.357,145.872 220.962 C 145.872 220.567,145.743 220.244,145.585 220.244 C 145.427 220.244,145.298 219.986,145.298 219.670 C 145.298 219.351,145.106 219.095,144.867 219.095 C 144.185 219.095,144.215 69.063,144.897 68.801 C 145.166 68.697,145.287 68.441,145.189 68.185 C 145.094 67.936,145.205 67.675,145.446 67.582 C 145.681 67.492,145.872 67.174,145.872 66.875 C 145.872 66.576,146.001 66.332,146.159 66.332 C 146.317 66.332,146.447 66.064,146.447 65.737 C 146.447 65.101,147.068 64.322,147.575 64.322 C 147.744 64.322,147.882 64.205,147.882 64.063 C 147.882 63.727,149.872 61.737,150.208 61.737 C 150.350 61.737,150.467 61.543,150.467 61.307 C 150.467 61.067,150.722 60.876,151.041 60.876 C 151.357 60.876,151.615 60.747,151.615 60.589 C 151.615 60.431,151.866 60.302,152.173 60.302 C 152.479 60.302,152.810 60.172,152.907 60.014 C 153.005 59.856,153.537 59.727,154.090 59.727 C 154.643 59.727,155.020 59.606,154.928 59.458 C 154.837 59.310,155.249 59.130,155.845 59.059 C 157.408 58.873,160.644 59.133,160.756 59.454 " stroke="none" fill="#9ba3af" fill-rule="evenodd"></path><path id="path1" d="M186.001 0.502 C 194.095 0.545,207.340 0.545,215.434 0.502 C 223.528 0.460,216.906 0.425,200.718 0.425 C 184.530 0.425,177.907 0.460,186.001 0.502 M127.577 1.074 C 128.491 1.131,129.912 1.131,130.736 1.073 C 131.559 1.015,130.811 0.968,129.074 0.969 C 127.337 0.970,126.663 1.017,127.577 1.074 M142.513 1.076 C 144.061 1.127,146.516 1.127,147.969 1.075 C 149.422 1.023,148.155 0.981,145.154 0.981 C 142.154 0.981,140.965 1.024,142.513 1.076 M155.851 1.076 C 158.575 1.124,163.033 1.124,165.757 1.076 C 168.482 1.029,166.253 0.991,160.804 0.991 C 155.355 0.991,153.126 1.029,155.851 1.076 M235.373 1.076 C 238.087 1.123,242.609 1.124,245.423 1.076 C 248.236 1.029,246.016 0.991,240.488 0.991 C 234.961 0.991,232.659 1.029,235.373 1.076 M253.898 1.075 C 255.272 1.128,257.598 1.128,259.067 1.076 C 260.535 1.023,259.411 0.980,256.569 0.980 C 253.726 0.980,252.524 1.023,253.898 1.075 M270.865 1.074 C 271.779 1.131,273.200 1.131,274.023 1.073 C 274.847 1.015,274.099 0.968,272.362 0.969 C 270.625 0.970,269.951 1.017,270.865 1.074 M157.286 59.068 C 157.642 59.137,158.223 59.137,158.579 59.068 C 158.934 59.000,158.643 58.944,157.933 58.944 C 157.222 58.944,156.931 59.000,157.286 59.068 M0.940 95.334 C 0.940 96.045,0.996 96.335,1.064 95.980 C 1.133 95.625,1.133 95.043,1.064 94.688 C 0.996 94.332,0.940 94.623,0.940 95.334 M0.953 101.651 C 0.953 102.678,1.005 103.098,1.069 102.584 C 1.133 102.071,1.133 101.231,1.069 100.718 C 1.005 100.205,0.953 100.625,0.953 101.651 M0.958 106.533 C 0.958 107.717,1.009 108.202,1.071 107.609 C 1.133 107.017,1.133 106.048,1.071 105.456 C 1.009 104.864,0.958 105.348,0.958 106.533 M0.393 112.850 C 0.393 114.508,0.441 115.187,0.499 114.358 C 0.557 113.528,0.557 112.172,0.499 111.342 C 0.441 110.513,0.393 111.192,0.393 112.850 M285.509 144.006 C 285.511 144.795,285.567 145.084,285.633 144.648 C 285.699 144.211,285.697 143.565,285.629 143.212 C 285.561 142.859,285.507 143.216,285.509 144.006 M0.395 175.592 C 0.395 177.330,0.443 178.003,0.500 177.089 C 0.557 176.175,0.556 174.754,0.498 173.931 C 0.441 173.107,0.394 173.855,0.395 175.592 M0.958 181.766 C 0.958 182.950,1.009 183.435,1.071 182.843 C 1.133 182.251,1.133 181.281,1.071 180.689 C 1.009 180.097,0.958 180.581,0.958 181.766 M0.953 186.648 C 0.953 187.674,1.005 188.094,1.069 187.581 C 1.133 187.067,1.133 186.228,1.069 185.714 C 1.005 185.201,0.953 185.621,0.953 186.648 M0.895 193.020 C 0.876 193.761,0.964 194.430,1.089 194.507 C 1.214 194.584,1.271 194.172,1.216 193.591 C 1.047 191.815,0.930 191.606,0.895 193.020 M108.615 286.207 C 109.049 286.273,109.760 286.273,110.194 286.207 C 110.628 286.141,110.273 286.087,109.404 286.087 C 108.536 286.087,108.180 286.141,108.615 286.207 M116.655 286.211 C 117.247 286.273,118.216 286.273,118.808 286.211 C 119.401 286.149,118.916 286.098,117.732 286.098 C 116.547 286.098,116.062 286.149,116.655 286.211 M121.975 286.212 C 122.650 286.273,123.684 286.272,124.272 286.210 C 124.860 286.148,124.307 286.099,123.044 286.100 C 121.780 286.101,121.299 286.151,121.975 286.212 M277.323 286.212 C 277.998 286.273,279.032 286.272,279.620 286.210 C 280.208 286.148,279.655 286.099,278.392 286.100 C 277.128 286.101,276.647 286.151,277.323 286.212 M282.477 286.209 C 282.987 286.272,283.892 286.273,284.487 286.211 C 285.083 286.149,284.666 286.097,283.561 286.096 C 282.455 286.094,281.968 286.145,282.477 286.209 M291.242 286.207 C 291.676 286.273,292.387 286.273,292.821 286.207 C 293.256 286.141,292.900 286.087,292.032 286.087 C 291.163 286.087,290.808 286.141,291.242 286.207 " stroke="none" fill="#484444" fill-rule="evenodd"></path><path id="path2" d="M186.001 0.502 C 194.095 0.545,207.340 0.545,215.434 0.502 C 223.528 0.460,216.906 0.425,200.718 0.425 C 184.530 0.425,177.907 0.460,186.001 0.502 M127.577 1.074 C 128.491 1.131,129.912 1.131,130.736 1.073 C 131.559 1.015,130.811 0.968,129.074 0.969 C 127.337 0.970,126.663 1.017,127.577 1.074 M142.513 1.076 C 144.061 1.127,146.516 1.127,147.969 1.075 C 149.422 1.023,148.155 0.981,145.154 0.981 C 142.154 0.981,140.965 1.024,142.513 1.076 M155.851 1.076 C 158.575 1.124,163.033 1.124,165.757 1.076 C 168.482 1.029,166.253 0.991,160.804 0.991 C 155.355 0.991,153.126 1.029,155.851 1.076 M235.373 1.076 C 238.087 1.123,242.609 1.124,245.423 1.076 C 248.236 1.029,246.016 0.991,240.488 0.991 C 234.961 0.991,232.659 1.029,235.373 1.076 M253.898 1.075 C 255.272 1.128,257.598 1.128,259.067 1.076 C 260.535 1.023,259.411 0.980,256.569 0.980 C 253.726 0.980,252.524 1.023,253.898 1.075 M270.865 1.074 C 271.779 1.131,273.200 1.131,274.023 1.073 C 274.847 1.015,274.099 0.968,272.362 0.969 C 270.625 0.970,269.951 1.017,270.865 1.074 M157.286 59.068 C 157.642 59.137,158.223 59.137,158.579 59.068 C 158.934 59.000,158.643 58.944,157.933 58.944 C 157.222 58.944,156.931 59.000,157.286 59.068 M0.940 95.334 C 0.940 96.045,0.996 96.335,1.064 95.980 C 1.133 95.625,1.133 95.043,1.064 94.688 C 0.996 94.332,0.940 94.623,0.940 95.334 M0.953 101.651 C 0.953 102.678,1.005 103.098,1.069 102.584 C 1.133 102.071,1.133 101.231,1.069 100.718 C 1.005 100.205,0.953 100.625,0.953 101.651 M0.958 106.533 C 0.958 107.717,1.009 108.202,1.071 107.609 C 1.133 107.017,1.133 106.048,1.071 105.456 C 1.009 104.864,0.958 105.348,0.958 106.533 M0.393 112.850 C 0.393 114.508,0.441 115.187,0.499 114.358 C 0.557 113.528,0.557 112.172,0.499 111.342 C 0.441 110.513,0.393 111.192,0.393 112.850 M285.509 144.006 C 285.511 144.795,285.567 145.084,285.633 144.648 C 285.699 144.211,285.697 143.565,285.629 143.212 C 285.561 142.859,285.507 143.216,285.509 144.006 M0.395 175.592 C 0.395 177.330,0.443 178.003,0.500 177.089 C 0.557 176.175,0.556 174.754,0.498 173.931 C 0.441 173.107,0.394 173.855,0.395 175.592 M0.958 181.766 C 0.958 182.950,1.009 183.435,1.071 182.843 C 1.133 182.251,1.133 181.281,1.071 180.689 C 1.009 180.097,0.958 180.581,0.958 181.766 M0.953 186.648 C 0.953 187.674,1.005 188.094,1.069 187.581 C 1.133 187.067,1.133 186.228,1.069 185.714 C 1.005 185.201,0.953 185.621,0.953 186.648 M0.895 193.020 C 0.876 193.761,0.964 194.430,1.089 194.507 C 1.214 194.584,1.271 194.172,1.216 193.591 C 1.047 191.815,0.930 191.606,0.895 193.020 M108.615 286.207 C 109.049 286.273,109.760 286.273,110.194 286.207 C 110.628 286.141,110.273 286.087,109.404 286.087 C 108.536 286.087,108.180 286.141,108.615 286.207 M116.655 286.211 C 117.247 286.273,118.216 286.273,118.808 286.211 C 119.401 286.149,118.916 286.098,117.732 286.098 C 116.547 286.098,116.062 286.149,116.655 286.211 M121.975 286.212 C 122.650 286.273,123.684 286.272,124.272 286.210 C 124.860 286.148,124.307 286.099,123.044 286.100 C 121.780 286.101,121.299 286.151,121.975 286.212 M277.323 286.212 C 277.998 286.273,279.032 286.272,279.620 286.210 C 280.208 286.148,279.655 286.099,278.392 286.100 C 277.128 286.101,276.647 286.151,277.323 286.212 M282.477 286.209 C 282.987 286.272,283.892 286.273,284.487 286.211 C 285.083 286.149,284.666 286.097,283.561 286.096 C 282.455 286.094,281.968 286.145,282.477 286.209 M291.242 286.207 C 291.676 286.273,292.387 286.273,292.821 286.207 C 293.256 286.141,292.900 286.087,292.032 286.087 C 291.163 286.087,290.808 286.141,291.242 286.207 " stroke="none" fill="#484444" fill-rule="evenodd"></path><path id="path3" d="M186.001 0.502 C 194.095 0.545,207.340 0.545,215.434 0.502 C 223.528 0.460,216.906 0.425,200.718 0.425 C 184.530 0.425,177.907 0.460,186.001 0.502 M127.577 1.074 C 128.491 1.131,129.912 1.131,130.736 1.073 C 131.559 1.015,130.811 0.968,129.074 0.969 C 127.337 0.970,126.663 1.017,127.577 1.074 M142.513 1.076 C 144.061 1.127,146.516 1.127,147.969 1.075 C 149.422 1.023,148.155 0.981,145.154 0.981 C 142.154 0.981,140.965 1.024,142.513 1.076 M155.851 1.076 C 158.575 1.124,163.033 1.124,165.757 1.076 C 168.482 1.029,166.253 0.991,160.804 0.991 C 155.355 0.991,153.126 1.029,155.851 1.076 M235.373 1.076 C 238.087 1.123,242.609 1.124,245.423 1.076 C 248.236 1.029,246.016 0.991,240.488 0.991 C 234.961 0.991,232.659 1.029,235.373 1.076 M253.898 1.075 C 255.272 1.128,257.598 1.128,259.067 1.076 C 260.535 1.023,259.411 0.980,256.569 0.980 C 253.726 0.980,252.524 1.023,253.898 1.075 M270.865 1.074 C 271.779 1.131,273.200 1.131,274.023 1.073 C 274.847 1.015,274.099 0.968,272.362 0.969 C 270.625 0.970,269.951 1.017,270.865 1.074 M157.286 59.068 C 157.642 59.137,158.223 59.137,158.579 59.068 C 158.934 59.000,158.643 58.944,157.933 58.944 C 157.222 58.944,156.931 59.000,157.286 59.068 M0.940 95.334 C 0.940 96.045,0.996 96.335,1.064 95.980 C 1.133 95.625,1.133 95.043,1.064 94.688 C 0.996 94.332,0.940 94.623,0.940 95.334 M0.953 101.651 C 0.953 102.678,1.005 103.098,1.069 102.584 C 1.133 102.071,1.133 101.231,1.069 100.718 C 1.005 100.205,0.953 100.625,0.953 101.651 M0.958 106.533 C 0.958 107.717,1.009 108.202,1.071 107.609 C 1.133 107.017,1.133 106.048,1.071 105.456 C 1.009 104.864,0.958 105.348,0.958 106.533 M0.393 112.850 C 0.393 114.508,0.441 115.187,0.499 114.358 C 0.557 113.528,0.557 112.172,0.499 111.342 C 0.441 110.513,0.393 111.192,0.393 112.850 M285.509 144.006 C 285.511 144.795,285.567 145.084,285.633 144.648 C 285.699 144.211,285.697 143.565,285.629 143.212 C 285.561 142.859,285.507 143.216,285.509 144.006 M0.395 175.592 C 0.395 177.330,0.443 178.003,0.500 177.089 C 0.557 176.175,0.556 174.754,0.498 173.931 C 0.441 173.107,0.394 173.855,0.395 175.592 M0.958 181.766 C 0.958 182.950,1.009 183.435,1.071 182.843 C 1.133 182.251,1.133 181.281,1.071 180.689 C 1.009 180.097,0.958 180.581,0.958 181.766 M0.953 186.648 C 0.953 187.674,1.005 188.094,1.069 187.581 C 1.133 187.067,1.133 186.228,1.069 185.714 C 1.005 185.201,0.953 185.621,0.953 186.648 M0.895 193.020 C 0.876 193.761,0.964 194.430,1.089 194.507 C 1.214 194.584,1.271 194.172,1.216 193.591 C 1.047 191.815,0.930 191.606,0.895 193.020 M108.615 286.207 C 109.049 286.273,109.760 286.273,110.194 286.207 C 110.628 286.141,110.273 286.087,109.404 286.087 C 108.536 286.087,108.180 286.141,108.615 286.207 M116.655 286.211 C 117.247 286.273,118.216 286.273,118.808 286.211 C 119.401 286.149,118.916 286.098,117.732 286.098 C 116.547 286.098,116.062 286.149,116.655 286.211 M121.975 286.212 C 122.650 286.273,123.684 286.272,124.272 286.210 C 124.860 286.148,124.307 286.099,123.044 286.100 C 121.780 286.101,121.299 286.151,121.975 286.212 M277.323 286.212 C 277.998 286.273,279.032 286.272,279.620 286.210 C 280.208 286.148,279.655 286.099,278.392 286.100 C 277.128 286.101,276.647 286.151,277.323 286.212 M282.477 286.209 C 282.987 286.272,283.892 286.273,284.487 286.211 C 285.083 286.149,284.666 286.097,283.561 286.096 C 282.455 286.094,281.968 286.145,282.477 286.209 M291.242 286.207 C 291.676 286.273,292.387 286.273,292.821 286.207 C 293.256 286.141,292.900 286.087,292.032 286.087 C 291.163 286.087,290.808 286.141,291.242 286.207 " stroke="none" fill="#484444" fill-rule="evenodd"></path></g></svg>